<svg xmlns="http://www.w3.org/2000/svg" viewBox="0 0 24 24" fill="#000000"><path d="M.045 17.542c.073-.14.181-.197.325-.168.151.03.199.119.199.286v.032c-.009.14.03.29.119.44.09.151.211.267.365.35.154.083.32.125.494.125.302 0 .57-.108.804-.325.235-.216.352-.49.352-.82 0-.316-.124-.572-.371-.768-.248-.197-.543-.295-.887-.295-.206 0-.403.04-.59.12-.188.08-.35.193-.487.34l-.371-.314c.188-.199.422-.36.703-.484.28-.124.579-.186.896-.186.467 0 .854.129 1.16.388.307.259.46.593.46 1.003 0 .285-.074.541-.224.768-.15.227-.36.405-.63.534.318.14.568.34.75.6.181.26.272.554.272.882 0 .404-.159.757-.478 1.06-.32.302-.73.453-1.234.453-.327 0-.63-.07-.909-.21-.28-.14-.502-.33-.669-.57-.166-.24-.25-.502-.25-.784v-.074c0-.124.046-.222.14-.294.093-.073.198-.09.314-.052.116.039.184.116.205.231.005.048.007.095.007.14 0 .275.107.514.32.716.215.203.479.304.793.304.36 0 .651-.11.871-.328.22-.22.33-.5.33-.838 0-.374-.119-.666-.358-.877-.239-.211-.552-.317-.939-.317h-.165c-.113 0-.21-.037-.287-.111-.078-.074-.117-.163-.117-.267 0-.106.04-.196.12-.27.08-.075.176-.112.287-.112h.165c.327 0 .596-.088.807-.263.21-.175.316-.408.316-.699 0-.264-.095-.482-.284-.654-.19-.172-.433-.258-.73-.258-.267 0-.501.07-.703.21-.201.14-.36.33-.475.57-.056.114-.136.172-.241.172-.093 0-.175-.034-.247-.103-.072-.069-.108-.152-.108-.25 0-.062.018-.127.055-.195zM13.98 15.773c.254-.39.568-.697.942-.923.375-.226.78-.34 1.217-.34.521 0 .969.145 1.343.434.375.29.562.653.562 1.09 0 .436-.187.8-.562 1.09-.374.29-.822.434-1.343.434-.437 0-.842-.113-1.217-.34-.374-.225-.688-.532-.942-.922-.254-.39-.381-.818-.381-1.284 0-.467.127-.895.381-1.284zm.564 2.26c.192.32.439.574.742.763.302.19.635.284.998.284.407 0 .755-.115 1.045-.346.29-.231.434-.515.434-.852 0-.337-.145-.621-.434-.852-.29-.23-.638-.346-1.045-.346-.363 0-.696.095-.998.284-.303.19-.55.444-.742.763-.192.32-.288.67-.288 1.053 0 .382.096.732.288 1.05zm5.432-2.568c.113-.137.269-.206.466-.206.198 0 .353.069.466.206.113.137.17.308.17.513v3.413c0 .205-.057.376-.17.513-.113.137-.268.206-.466.206-.197 0-.353-.069-.466-.206-.113-.137-.17-.308-.17-.513v-3.413c0-.205.057-.376.17-.513zm-1.212 3.926c0 .205-.057.376-.17.513-.113.137-.268.206-.466.206-.197 0-.353-.069-.466-.206-.113-.137-.17-.308-.17-.513v-2.22l-1.413 2.527c-.08.14-.198.233-.353.28-.155.047-.306.02-.453-.08l-.083-.066c-.119-.097-.188-.214-.206-.35-.018-.137.01-.269.084-.397l1.615-2.82h-1.377c-.197 0-.353-.068-.466-.205-.113-.137-.17-.308-.17-.513 0-.206.057-.377.17-.514.113-.136.269-.205.466-.205h2.816c.198 0 .353.069.466.205.113.137.17.308.17.514v3.644zm-8.41-8.64c-.45-.024-.873-.164-1.27-.42-.397-.256-.71-.59-.94-1.003-.23-.412-.345-.857-.345-1.336 0-.563.147-1.073.441-1.53.294-.458.688-.816 1.182-1.074.494-.26 1.031-.389 1.611-.389.58 0 1.117.13 1.611.389.494.258.888.616 1.182 1.073.294.458.441.968.441 1.531 0 .563-.147 1.073-.44 1.53-.295.458-.689.816-1.183 1.074-.494.258-1.03.388-1.611.388-.346 0-.68-.045-1-.134-.32-.09-.586-.207-.797-.352l-.043.173c-.028.112-.098.196-.21.253-.11.056-.224.067-.34.032-.115-.035-.2-.103-.254-.204-.054-.1-.064-.208-.03-.324l.184-.735c.012-.074.059-.14.14-.198.08-.058.172-.072.274-.042l.74.206c.034-.008.064-.02.09-.036.063-.023.126-.042.19-.056.063-.015.127-.022.19-.022.253 0 .458.09.616.271.158.181.237.407.237.678 0 .118-.016.23-.048.336-.032.107-.08.2-.144.28-.064.08-.145.143-.243.188-.097.045-.208.067-.332.067-.283 0-.51-.107-.68-.322-.17-.215-.255-.484-.255-.808 0-.185.034-.358.101-.52.068-.16.16-.299.278-.416.118-.117.257-.208.417-.272.16-.065.332-.097.517-.097.225 0 .44.054.647.162.206.108.378.256.516.445l.022.03c.037.047.055.102.055.166 0 .078-.032.146-.095.205-.063.058-.138.088-.225.088-.054 0-.105-.015-.152-.045-.047-.03-.085-.067-.112-.112-.088-.117-.199-.212-.334-.285-.135-.073-.279-.11-.431-.11-.185 0-.349.045-.49.134-.142.09-.254.21-.336.363-.082.153-.123.324-.123.513 0 .173.034.328.103.467.069.138.162.247.28.327.118.08.248.12.391.12.128 0 .24-.032.337-.096.096-.065.171-.15.225-.257.053-.107.08-.222.08-.346 0-.14-.036-.26-.109-.36-.073-.1-.17-.17-.293-.21-.054-.017-.096-.05-.125-.098-.029-.048-.037-.1-.024-.156.014-.055.043-.098.09-.129.045-.03.097-.039.154-.025.234.058.424.181.57.369.145.188.218.408.218.66 0 .21-.053.4-.158.572-.105.172-.25.31-.434.415-.185.105-.393.157-.625.157zm2.17-2.63c-.22-.193-.475-.289-.765-.289-.29 0-.545.096-.766.29-.22.193-.33.438-.33.734 0 .296.11.541.33.734.221.194.476.29.766.29.29 0 .546-.096.766-.29.22-.193.33-.438.33-.734 0-.296-.11-.54-.33-.734zm-2.072-.75c.276-.259.607-.388.993-.388.386 0 .717.13.993.388.277.258.415.574.415.948 0 .373-.138.69-.415.948-.276.259-.607.388-.993.388-.386 0-.717-.13-.993-.388-.276-.258-.415-.575-.415-.948 0-.374.139-.69.415-.948z"/></svg>
