<svg xmlns="http://www.w3.org/2000/svg" viewBox="0 0 24 24" fill="currentColor"><path d="M12 2C6.477 2 2 6.477 2 12s4.477 10 10 10 10-4.477 10-10S17.523 2 12 2zm6.918 6h-3.215a14.648 14.648 0 00-1.636-4.195A8.015 8.015 0 0118.918 8zM12 4.06c.937 1.12 1.686 2.5 2.147 4.01H9.853c.461-1.51 1.21-2.89 2.147-4.01zM4.26 14a7.943 7.943 0 010-4h3.477a16.146 16.146 0 000 4H4.26zm.822 2h3.215a14.648 14.648 0 001.636 4.195A8.015 8.015 0 015.082 16zm3.215-8H5.082a8.015 8.015 0 014.851-4.195A14.648 14.648 0 008.297 8zm3.703 12c-.937-1.12-1.686-2.5-2.147-4.01h4.294c-.461 1.51-1.21 2.89-2.147 4.01zm2.503-6.01H9.497a14.115 14.115 0 010-3.98h5.006a14.115 14.115 0 010 3.98zm.43 6.205A14.648 14.648 0 0016.57 16h3.348a8.015 8.015 0 01-4.851 4.195zM16.263 14a16.146 16.146 0 000-4h3.477a7.943 7.943 0 010 4h-3.477z"/></svg>