<svg xmlns="http://www.w3.org/2000/svg" viewBox="0 0 24 24" fill="currentColor"><path d="M9.813 2.13l.912 2.58a5.25 5.25 0 003.328 3.327l2.58.913a.75.75 0 010 1.41l-2.58.913a5.25 5.25 0 00-3.328 3.327l-.912 2.58a.75.75 0 01-1.41 0l-.913-2.58a5.25 5.25 0 00-3.327-3.327l-2.58-.913a.75.75 0 010-1.41l2.58-.912a5.25 5.25 0 003.327-3.328l.913-2.58a.75.75 0 011.41 0zM18.253 13.5l.456 1.29a3.25 3.25 0 002.06 2.059l1.29.456a.75.75 0 010 1.41l-1.29.456a3.25 3.25 0 00-2.06 2.06l-.456 1.29a.75.75 0 01-1.41 0l-.456-1.29a3.25 3.25 0 00-2.06-2.06l-1.29-.456a.75.75 0 010-1.41l1.29-.456a3.25 3.25 0 002.06-2.06l.456-1.29a.75.75 0 011.41 0z"/></svg>