<svg xmlns="http://www.w3.org/2000/svg" viewBox="0 0 24 24" fill="#000000"><path d="M12 2C6.48 2 2 6.48 2 12s4.48 10 10 10 10-4.48 10-10S17.52 2 12 2zm0 2c1.51 0 2.93.35 4.19.97-.12.14-.36.38-.68.68-.64.6-1.64 1.44-2.96 2.35-1.32-.91-2.32-1.75-2.96-2.35-.32-.3-.56-.54-.68-.68C10.07 4.35 11.49 4 13 4zM5.5 7.23c.32.31.76.7 1.32 1.16.84.7 1.92 1.52 3.18 2.41-1.54 1.67-2.67 3.45-3.42 4.96-.8 1.61-1.14 2.91-1.14 3.69C4.18 17.43 3.5 14.82 3.5 12c0-1.8.43-3.5 1.19-5zm3.15 4.72c1.36 1.02 3 2.11 4.85 3.1 1.85-.99 3.49-2.08 4.85-3.1 1.26-.89 2.34-1.71 3.18-2.41.56-.46 1-.85 1.32-1.16.76 1.5 1.19 3.2 1.19 5 0 2.82-.68 5.43-1.94 7.45 0-.78-.34-2.08-1.14-3.69-.75-1.51-1.88-3.29-3.42-4.96 1.26-.89 2.34-1.71 3.18-2.41.56-.46 1-.85 1.32-1.16C20.57 8.5 21.5 10.2 21.5 12c0 .86-.1 1.7-.28 2.5-.39-1.05-1.01-2.29-1.88-3.61-.67-.52-1.44-1.08-2.32-1.67-.88.59-1.65 1.15-2.32 1.67-.87 1.32-1.49 2.56-1.88 3.61-.18-.8-.28-1.64-.28-2.5 0-1.8.43-3.5 1.19-5 .32.31.76.7 1.32 1.16.84.7 1.92 1.52 3.18 2.41z"/></svg>
